<svg width="34" height="34" viewBox="0 0 34 34" fill="none" xmlns="http://www.w3.org/2000/svg">
<g clip-path="url(#clip0_450_204)">
<path d="M16.9998 13.909V20.4927H26.1488C25.7471 22.6099 24.5415 24.4027 22.7333 25.6082L28.2506 29.8891C31.4651 26.9219 33.3197 22.5637 33.3197 17.3865C33.3197 16.181 33.2115 15.0218 33.0105 13.9092L16.9998 13.909Z" fill="#4285F4"/>
<path d="M7.47245 20.2357L6.2281 21.1882L1.82349 24.6191C4.62075 30.1672 10.354 34 16.9994 34C21.5892 34 25.4374 32.4854 28.2502 29.8891L22.7329 25.6082C21.2184 26.6282 19.2865 27.2464 16.9994 27.2464C12.5794 27.2464 8.82405 24.2637 7.4794 20.2455L7.47245 20.2357Z" fill="#34A853"/>
<path d="M1.8235 9.38092C0.664476 11.6681 0 14.249 0 16.9999C0 19.7508 0.664476 22.3317 1.8235 24.6189C1.8235 24.6342 7.47996 20.2298 7.47996 20.2298C7.13997 19.2098 6.939 18.1281 6.939 16.9997C6.939 15.8714 7.13997 14.7897 7.47996 13.7697L1.8235 9.38092Z" fill="#FBBC05"/>
<path d="M16.9997 6.76909C19.5034 6.76909 21.7288 7.63452 23.5061 9.30363L28.3742 4.43551C25.4224 1.68465 21.5898 0 16.9997 0C10.3543 0 4.62075 3.81727 1.82349 9.38092L7.47977 13.77C8.82424 9.75179 12.5797 6.76909 16.9997 6.76909Z" fill="#EA4335"/>
</g>
<defs>
<clipPath id="clip0_450_204">
<rect width="34" height="34" fill="white"/>
</clipPath>
</defs>
</svg>
