<svg xmlns="http://www.w3.org/2000/svg" width="60" height="60" viewBox="0 0 312.5 331.5" class="looka-1j8o68f"><defs id="SvgjsDefs6389"></defs><g id="SvgjsG6390" featurekey="rootContainer" transform="matrix(6.25,0,0,6.25,0.31249597668647766,19)" fill="#ffffff"><path xmlns="http://www.w3.org/2000/svg" d="M24.95 0a25 25 0 1 0 25 25 25 25 0 0 0-25-25zm0 46.91a22 22 0 1 1 22-22 22 22 0 0 1-22 21.99z"></path><path xmlns="http://www.w3.org/2000/svg" d="M24.95 3.65a21.3 21.3 0 1 0 21.3 21.3 21.33 21.33 0 0 0-21.3-21.3z"></path></g><g id="SvgjsG6391" featurekey="symbolFeature-0" transform="matrix(0.8888604067286391,0,0,0.8888604067286391,111.91124178997492,78.53344432898997)" fill="#aa96da"><path xmlns="http://www.w3.org/2000/svg" d="M87.5,24.3L87.5,24.3C79.3,11.5,65.2,3.9,49.9,3.9c-8.7,0-17.2,2.5-24.6,7.3c-13.2,8.6-20.7,23-20.7,37.9  c0,5.8,1.1,11.8,3.5,17.4c0.3,0.7,1,1.2,1.8,1.2c0.3,0,0.5-0.1,0.8-0.2c0.7-0.3,1.2-1.1,1.2-1.8c0-0.2,0-0.5-0.1-0.7  c-2.2-5.2-3.2-10.6-3.2-15.9c0-13.6,6.8-26.8,18.9-34.7c6.7-4.3,14.4-6.7,22.4-6.7v0l0,0c0,0,0,0,0,0h0l0,0l0,0  c14,0,26.8,7,34.4,18.6c4.4,6.8,6.5,14.5,6.5,22.1h0l0,0v0v0v0v0l0,0v0c0,13.5-6.7,26.8-18.8,34.7c-6.7,4.3-14.4,6.7-22.3,6.7l0,0  h-0.2c0,0,0,0,0,0h0c-10.7,0-21-4.3-28.6-11.8l-1.5-1.5l2.7,0.3l11.8-2.8l36.6-36.5c5.2-4.6-7.4-13.7-9.8-14.6l0,0l0,0  c-1.2,0-2.4,0.5-3.3,1.4L20.8,60.9L17,76.5l0.2,0L17,76.7l0,0l-0.2,0.2l0,0c-0.4,0.4-0.6,0.8-0.6,1.4l0,0.1c0,0.5,0.2,0.9,0.5,1.3  C25,88.6,37,93.9,49.4,93.9v0h0c8.7,0,17.2-2.5,24.6-7.3c10.1-6.6,17-16.6,19.6-28.4c0.7-3.2,1-6.5,1-9.7  C94.7,39.9,92.2,31.6,87.5,24.3z M59.5,26.4l0.2-0.1l0.3-0.1l0.5-0.2l0.5,0.2l0.5,0.2l6.7,6.8l0.3,0.4l0.2,0.5v0.3v0.3l-0.1,0.2  l-0.2,0.5L62.6,41l-8.9-8.9L59.5,26.4z M25,60.9c5.2-5.2,20.8-20.9,26.1-26.2l0.9-0.9l8.9,8.9l-27,27L33,70.7l-4.5-4.5l-4.4-4.4  L25,60.9z M23.1,64.3l7.5,7.5l-7.9,1.9l-2,0.5L23.1,64.3z"></path></g><g id="SvgjsG6392" featurekey="nameFeature-0" transform="matrix(0.6922465659400874,0,0,0.6922465659400874,54.022045342699336,174.08907129043206)" fill="#aa96da"><path d="M27.143 17.714 l-16.857 0 l0 4.8571 l14.571 0 l0 6.2857 l-14.571 0 l0 4.8571 l16.857 0 l0 6.2857 l-20 0 l-4.2857 -4.2857 l0 -24.286 l24.286 0 l0 6.2857 z M49.429 17.714 l-9.1429 0 l0 16 l9.1429 0 l2.2857 -2.2857 l5.4286 0 l0 4.2857 l-4.2857 4.2857 l-15.714 0 l-4.2857 -4.2857 l0 -20 l4.2857 -4.2857 l15.714 0 l4.2857 4.2857 l0 4.2857 l-5.4286 0 z M80.629 11.428999999999998 l7.4286 0 l0 28.571 l-7.4286 0 l0 -11.143 l-10.286 0 l0 11.143 l-7.4857 0 l0.057143 -28.571 l7.4286 0 l0 11.143 l10.286 0 l0 -11.143 z M114.62828571428571 11.428999999999998 l4.2857 4.2857 l0 20 l-4.2857 4.2857 l-16.571 0 l-4.2857 -4.2857 l0 -20 l4.2857 -4.2857 l16.571 0 z M111.48528571428571 33.7143 l0 -16 l-10.286 0 l0 16 l10.286 0 z M151.48542857142857 11.428999999999998 l6.8571 0 l0 3.4286 l-6.9714 25.143 l-6.8571 0 l-3.7143 -13.486 l-3.7143 13.486 l-6.8571 0 l-7.0286 -25.143 l0 -3.4286 l6.8571 0 l4.1714 16.914 l4.1143 -16.914 l4.8571 0 l4.1714 16.914 z M188.34242857142857 15.713999999999999 l0 10 l-4.2857 4.2857 l4.2857 6.5714 l0 3.4286 l-6.8571 0 l-5.9429 -9.7143 l-5.4857 0 l0 9.7143 l-7.4286 0 l0 -28.571 l21.429 0 z M180.91442857142857 24 l0 -6.2857 l-10.857 0 l0 6.2857 l10.857 0 z M193.2 40 l0 -5.7143 l2.2857 0 l0 -17.143 l-2.2857 0 l0 -5.7143 l12 0 l0 5.7143 l-2.2857 0 l0 17.143 l2.2857 0 l0 5.7143 l-12 0 z M208.05713999999998 17.714 l0 -6.2857 l24.286 0 l0 6.2857 l-8.4571 0 l0 22.286 l-7.4286 0 l0 -22.286 l-8.4 0 z M260.34299999999996 17.714 l-16.857 0 l0 4.8571 l14.571 0 l0 6.2857 l-14.571 0 l0 4.8571 l16.857 0 l0 6.2857 l-20 0 l-4.2857 -4.2857 l0 -24.286 l24.286 0 l0 6.2857 z M284.057 17.714 l-10.571 0 l0 4.8571 l14 0 l4.2857 4.2857 l0 8.8571 l-4.2857 4.2857 l-17.143 0 l-4.2857 -4.2857 l0 -4.2857 l5.4286 0 l2.2857 2.2857 l10.571 0 l0 -4.8571 l-14 0 l-4.2857 -4.2857 l0 -8.8571 l4.2857 -4.2857 l17.143 0 l4.2857 4.2857 l0 4.2857 l-5.4286 0 z"></path></g><g id="SvgjsG6393" featurekey="sloganFeature-0" transform="matrix(0.4260928907012993,0,0,0.4260928907012993,75.3182514155133,217.5968359501573)" fill="#aa96da"><path d="M7.41 9.98 c2.16 0 3.75 1.32 3.75 3.81 c0 0.19 -0.1 0.3 -0.29 0.32 l-1.56 0.22 c-0.19 0.03 -0.3 -0.08 -0.32 -0.27 c-0.09 -1.46 -0.99 -2.07 -2.27 -2.07 c-2.02 0 -2.96 1.69 -2.96 2.29 l0 5.42 c0 0.18 -0.12 0.3 -0.3 0.3 l-1.56 0 c-0.18 0 -0.3 -0.12 -0.3 -0.3 l0 -9.2 c0 -0.18 0.12 -0.3 0.3 -0.3 l1.48 0 c0.18 0 0.28 0.12 0.3 0.3 l0.08 1.32 l0.22 0 c0.64 -0.94 1.83 -1.84 3.43 -1.84 z M23.005000000000003 9.98 c2.96 0 4.74 2.27 4.74 4.89 c0 0.74 -0.09 1.11 -0.65 1.11 l-6.99 0 c0.23 1.52 1.5 2.5 3.31 2.5 c1.05 0 1.78 -0.32 2.45 -0.83 c0.16 -0.12 0.28 -0.15 0.43 0 l0.66 0.66 c0.15 0.15 0.16 0.29 0 0.45 c-0.95 0.95 -2.19 1.5 -3.76 1.5 c-3.12 0 -5.19 -2.26 -5.19 -5.14 s2.07 -5.14 5 -5.14 z M23.015 11.83 c-1.53 0 -2.67 1 -2.89 2.59 l5.72 0 c-0.16 -1.57 -1.27 -2.59 -2.83 -2.59 z M39.120000000000005 14.3 c2.11 0.27 4.56 0.53 4.56 2.94 c0 1.79 -1.48 3.02 -4.51 3.02 c-2.62 0 -4.39 -0.77 -4.62 -3.1 c-0.02 -0.2 0.11 -0.3 0.29 -0.3 l1.49 0 c0.18 0 0.27 0.08 0.29 0.22 c0.15 1.01 1.09 1.38 2.51 1.38 c1.54 0 2.43 -0.4 2.43 -1.26 c0 -0.91 -1.04 -1.13 -2.44 -1.3 c-2.08 -0.27 -4.38 -0.55 -4.38 -2.92 c0 -1.77 1.38 -3 4.23 -3 c2.48 0 4.27 0.76 4.5 3.09 c0.02 0.2 -0.11 0.3 -0.29 0.3 l-1.49 0 c-0.18 0 -0.27 -0.08 -0.29 -0.22 c-0.15 -1.01 -1.11 -1.38 -2.4 -1.38 c-1.33 0 -2.15 0.38 -2.15 1.25 s0.88 1.1 2.27 1.28 z M55.675000000000004 20.26 c-2.85 0 -5.15 -2.26 -5.15 -5.14 c0 -2.87 2.3 -5.14 5.15 -5.14 c2.84 0 5.14 2.27 5.14 5.14 c0 2.88 -2.3 5.14 -5.14 5.14 z M55.675000000000004 18.25 c1.72 0 3.05 -1.4 3.05 -3.13 c0 -1.72 -1.33 -3.14 -3.05 -3.14 c-1.73 0 -3.06 1.42 -3.06 3.14 c0 1.73 1.33 3.13 3.06 3.13 z M73.78 9.98 c2.09 0 3.54 1.42 3.54 4.04 l0 5.68 c0 0.18 -0.12 0.3 -0.3 0.3 l-1.56 0 c-0.18 0 -0.3 -0.12 -0.3 -0.3 l0 -5.36 c0 -1.67 -0.86 -2.37 -2.17 -2.37 c-1.9 0 -2.72 1.64 -2.72 2.08 l0 5.65 c0 0.18 -0.12 0.3 -0.3 0.3 l-1.56 0 c-0.18 0 -0.3 -0.12 -0.3 -0.3 l0 -9.2 c0 -0.18 0.12 -0.3 0.3 -0.3 l1.48 0 c0.18 0 0.28 0.12 0.3 0.3 l0.08 1.32 l0.21 0 c0.58 -0.94 1.65 -1.84 3.3 -1.84 z M94.47500000000001 18.21 c0.25 0.06 0.36 0.14 0.36 0.35 l0 1.19 c0 0.23 -0.22 0.32 -0.57 0.33 c-1.45 0.03 -2.13 -0.5 -2.13 -1.64 l-0.09 0 c-1.02 1.16 -2.74 1.8 -4.15 1.8 c-2.19 0 -3.33 -1.09 -3.33 -2.79 c0 -1.77 1.13 -2.67 3.36 -3 l2.33 -0.36 c0.83 -0.13 1.27 -0.24 1.39 -0.47 c-0.05 -1.36 -0.83 -1.8 -2.12 -1.8 c-1.27 0 -2.19 0.34 -2.34 1.35 c-0.02 0.14 -0.11 0.22 -0.29 0.22 l-1.49 0 c-0.18 0 -0.31 -0.1 -0.29 -0.3 c0.24 -2.33 1.98 -3.11 4.43 -3.11 c2.84 0 4.2 1.33 4.2 3.74 l0 3.67 c0 0.44 0.23 0.72 0.73 0.82 z M88.305 18.39 c1.11 0 2.28 -0.25 3.34 -1.31 l0 -2.01 c-0.11 0.23 -0.5 0.34 -1.25 0.46 l-2.1 0.33 c-1.18 0.19 -1.57 0.66 -1.57 1.32 c0 0.73 0.48 1.21 1.58 1.21 z M111.27 18.35 c0.11 0.13 0.13 0.28 0.02 0.41 c-0.42 0.52 -1.51 1.4 -3.3 1.4 c-2.05 0 -3.98 -0.76 -3.98 -3.97 l0 -4.18 l-2.48 0 c-0.18 0 -0.3 -0.12 -0.3 -0.3 l0 -1.21 c0 -0.18 0.12 -0.3 0.3 -0.3 l2.48 0 l0 -2.6 c0 -0.18 0.12 -0.3 0.3 -0.3 l1.56 0 c0.18 0 0.3 0.12 0.3 0.3 l0 2.6 l3.95 0 c0.18 0 0.3 0.12 0.3 0.3 l0 1.21 c0 0.18 -0.12 0.3 -0.3 0.3 l-3.95 0 l0 3.95 c0 1.87 1.08 2.26 2.19 2.26 c0.83 0 1.43 -0.36 1.82 -0.67 c0.14 -0.13 0.3 -0.12 0.42 0.02 z M123.065 9.98 c2.96 0 4.74 2.27 4.74 4.89 c0 0.74 -0.09 1.11 -0.65 1.11 l-6.99 0 c0.23 1.52 1.5 2.5 3.31 2.5 c1.05 0 1.78 -0.32 2.45 -0.83 c0.16 -0.12 0.28 -0.15 0.43 0 l0.66 0.66 c0.15 0.15 0.16 0.29 0 0.45 c-0.95 0.95 -2.19 1.5 -3.76 1.5 c-3.12 0 -5.19 -2.26 -5.19 -5.14 s2.07 -5.14 5 -5.14 z M123.075 11.83 c-1.53 0 -2.67 1 -2.89 2.59 l5.72 0 c-0.16 -1.57 -1.27 -2.59 -2.83 -2.59 z M139.36 18.18 c0.18 0 0.3 0.12 0.3 0.3 l0 0.66 c0 1.78 -0.37 3.62 -0.76 4.67 c-0.06 0.16 -0.19 0.23 -0.35 0.23 l-0.9 0 c-0.2 0 -0.3 -0.12 -0.26 -0.33 c0.2 -1.03 0.29 -2.74 0.27 -3.71 l-2.61 0 c-0.18 0 -0.3 -0.12 -0.3 -0.3 l0 -1.22 c0 -0.18 0.12 -0.3 0.3 -0.3 l4.31 0 z M171.76 10.2 c0.22 0 0.29 0.12 0.24 0.34 l-2.41 9.22 c-0.04 0.16 -0.2 0.24 -0.36 0.24 l-1.85 0 c-0.16 0 -0.31 -0.08 -0.36 -0.24 l-1.78 -7.01 l-1.8 7.01 c-0.04 0.16 -0.2 0.24 -0.36 0.24 l-1.85 0 c-0.16 0 -0.31 -0.08 -0.36 -0.24 l-2.39 -9.22 c-0.06 -0.22 0.02 -0.34 0.24 -0.34 l1.45 0 c0.16 0 0.32 0.08 0.36 0.24 l1.68 7.09 l1.9 -7.09 c0.05 -0.16 0.2 -0.24 0.36 -0.24 l1.52 0 c0.16 0 0.32 0.08 0.36 0.24 l1.91 7.09 l1.69 -7.09 c0.03 -0.16 0.19 -0.24 0.36 -0.24 l1.45 0 z M184.725 9.98 c2.16 0 3.75 1.32 3.75 3.81 c0 0.19 -0.1 0.3 -0.29 0.32 l-1.56 0.22 c-0.19 0.03 -0.3 -0.08 -0.32 -0.27 c-0.09 -1.46 -0.99 -2.07 -2.27 -2.07 c-2.02 0 -2.96 1.69 -2.96 2.29 l0 5.42 c0 0.18 -0.12 0.3 -0.3 0.3 l-1.56 0 c-0.18 0 -0.3 -0.12 -0.3 -0.3 l0 -9.2 c0 -0.18 0.12 -0.3 0.3 -0.3 l1.48 0 c0.18 0 0.28 0.12 0.3 0.3 l0.08 1.32 l0.22 0 c0.64 -0.94 1.83 -1.84 3.43 -1.84 z M200.17 8.13 c-0.7 0 -1.25 -0.55 -1.25 -1.24 c0 -0.7 0.55 -1.25 1.25 -1.25 c0.69 0 1.24 0.55 1.24 1.25 c0 0.69 -0.55 1.24 -1.24 1.24 z M204.23 18.19 c0.18 0 0.3 0.12 0.3 0.3 l0 1.21 c0 0.18 -0.12 0.3 -0.3 0.3 l-8.61 0 c-0.18 0 -0.3 -0.12 -0.3 -0.3 l0 -1.21 c0 -0.18 0.12 -0.3 0.3 -0.3 l3.49 0 l0 -6.18 l-2.99 0 c-0.18 0 -0.3 -0.12 -0.3 -0.3 l0 -1.21 c0 -0.18 0.12 -0.3 0.3 -0.3 l4.85 0 c0.18 0 0.3 0.12 0.3 0.3 l0 7.69 l2.96 0 z M221.115 18.35 c0.11 0.13 0.13 0.28 0.02 0.41 c-0.42 0.52 -1.51 1.4 -3.3 1.4 c-2.05 0 -3.98 -0.76 -3.98 -3.97 l0 -4.18 l-2.48 0 c-0.18 0 -0.3 -0.12 -0.3 -0.3 l0 -1.21 c0 -0.18 0.12 -0.3 0.3 -0.3 l2.48 0 l0 -2.6 c0 -0.18 0.12 -0.3 0.3 -0.3 l1.56 0 c0.18 0 0.3 0.12 0.3 0.3 l0 2.6 l3.95 0 c0.18 0 0.3 0.12 0.3 0.3 l0 1.21 c0 0.18 -0.12 0.3 -0.3 0.3 l-3.95 0 l0 3.95 c0 1.87 1.08 2.26 2.19 2.26 c0.83 0 1.43 -0.36 1.82 -0.67 c0.14 -0.13 0.3 -0.12 0.42 0.02 z M232.91 9.98 c2.96 0 4.74 2.27 4.74 4.89 c0 0.74 -0.09 1.11 -0.65 1.11 l-6.99 0 c0.23 1.52 1.5 2.5 3.31 2.5 c1.05 0 1.78 -0.32 2.45 -0.83 c0.16 -0.12 0.28 -0.15 0.43 0 l0.66 0.66 c0.15 0.15 0.16 0.29 0 0.45 c-0.95 0.95 -2.19 1.5 -3.76 1.5 c-3.12 0 -5.19 -2.26 -5.19 -5.14 s2.07 -5.14 5 -5.14 z M232.92 11.83 c-1.53 0 -2.67 1 -2.89 2.59 l5.72 0 c-0.16 -1.57 -1.27 -2.59 -2.83 -2.59 z M249.205 18.18 c0.18 0 0.3 0.12 0.3 0.3 l0 0.66 c0 1.78 -0.37 3.62 -0.76 4.67 c-0.06 0.16 -0.19 0.23 -0.35 0.23 l-0.9 0 c-0.2 0 -0.3 -0.12 -0.26 -0.33 c0.2 -1.03 0.29 -2.74 0.27 -3.71 l-2.61 0 c-0.18 0 -0.3 -0.12 -0.3 -0.3 l0 -1.22 c0 -0.18 0.12 -0.3 0.3 -0.3 l4.31 0 z M273.545 8.13 c-0.7 0 -1.25 -0.55 -1.25 -1.24 c0 -0.7 0.55 -1.25 1.25 -1.25 c0.69 0 1.24 0.55 1.24 1.25 c0 0.69 -0.55 1.24 -1.24 1.24 z M277.605 18.19 c0.18 0 0.3 0.12 0.3 0.3 l0 1.21 c0 0.18 -0.12 0.3 -0.3 0.3 l-8.61 0 c-0.18 0 -0.3 -0.12 -0.3 -0.3 l0 -1.21 c0 -0.18 0.12 -0.3 0.3 -0.3 l3.49 0 l0 -6.18 l-2.99 0 c-0.18 0 -0.3 -0.12 -0.3 -0.3 l0 -1.21 c0 -0.18 0.12 -0.3 0.3 -0.3 l4.85 0 c0.18 0 0.3 0.12 0.3 0.3 l0 7.69 l2.96 0 z M290.77 9.98 c2.09 0 3.54 1.42 3.54 4.04 l0 5.68 c0 0.18 -0.12 0.3 -0.3 0.3 l-1.56 0 c-0.18 0 -0.3 -0.12 -0.3 -0.3 l0 -5.36 c0 -1.67 -0.86 -2.37 -2.17 -2.37 c-1.9 0 -2.72 1.64 -2.72 2.08 l0 5.65 c0 0.18 -0.12 0.3 -0.3 0.3 l-1.56 0 c-0.18 0 -0.3 -0.12 -0.3 -0.3 l0 -9.2 c0 -0.18 0.12 -0.3 0.3 -0.3 l1.48 0 c0.18 0 0.28 0.12 0.3 0.3 l0.08 1.32 l0.21 0 c0.58 -0.94 1.65 -1.84 3.3 -1.84 z M306.035 14.3 c2.11 0.27 4.56 0.53 4.56 2.94 c0 1.79 -1.48 3.02 -4.51 3.02 c-2.62 0 -4.39 -0.77 -4.62 -3.1 c-0.02 -0.2 0.11 -0.3 0.29 -0.3 l1.49 0 c0.18 0 0.27 0.08 0.29 0.22 c0.15 1.01 1.09 1.38 2.51 1.38 c1.54 0 2.43 -0.4 2.43 -1.26 c0 -0.91 -1.04 -1.13 -2.44 -1.3 c-2.08 -0.27 -4.38 -0.55 -4.38 -2.92 c0 -1.77 1.38 -3 4.23 -3 c2.48 0 4.27 0.76 4.5 3.09 c0.02 0.2 -0.11 0.3 -0.29 0.3 l-1.49 0 c-0.18 0 -0.27 -0.08 -0.29 -0.22 c-0.15 -1.01 -1.11 -1.38 -2.4 -1.38 c-1.33 0 -2.15 0.38 -2.15 1.25 s0.88 1.1 2.27 1.28 z M323.12 9.99 c2.84 0 4.49 2.23 4.49 5.13 s-1.69 5.13 -4.49 5.13 c-1.4 0 -2.44 -0.57 -3.17 -1.41 l0 4.66 c0 0.18 -0.12 0.3 -0.3 0.3 l-1.56 0 c-0.18 0 -0.3 -0.12 -0.3 -0.3 l0 -13 c0 -0.18 0.12 -0.3 0.3 -0.3 l1.56 0 c0.18 0 0.3 0.12 0.3 0.3 l0 1.14 l0.2 0 c0.54 -0.91 1.47 -1.65 2.97 -1.65 z M322.69 18.27 c1.87 0 2.83 -1.29 2.83 -3.17 s-0.96 -3.13 -2.83 -3.13 c-1.7 0 -2.76 1.25 -2.76 3.13 s1.06 3.17 2.76 3.17 z M339.40500000000003 8.13 c-0.7 0 -1.25 -0.55 -1.25 -1.24 c0 -0.7 0.55 -1.25 1.25 -1.25 c0.69 0 1.24 0.55 1.24 1.25 c0 0.69 -0.55 1.24 -1.24 1.24 z M343.46500000000003 18.19 c0.18 0 0.3 0.12 0.3 0.3 l0 1.21 c0 0.18 -0.12 0.3 -0.3 0.3 l-8.61 0 c-0.18 0 -0.3 -0.12 -0.3 -0.3 l0 -1.21 c0 -0.18 0.12 -0.3 0.3 -0.3 l3.49 0 l0 -6.18 l-2.99 0 c-0.18 0 -0.3 -0.12 -0.3 -0.3 l0 -1.21 c0 -0.18 0.12 -0.3 0.3 -0.3 l4.85 0 c0.18 0 0.3 0.12 0.3 0.3 l0 7.69 l2.96 0 z M356.77000000000004 9.98 c2.16 0 3.75 1.32 3.75 3.81 c0 0.19 -0.1 0.3 -0.29 0.32 l-1.56 0.22 c-0.19 0.03 -0.3 -0.08 -0.32 -0.27 c-0.09 -1.46 -0.99 -2.07 -2.27 -2.07 c-2.02 0 -2.96 1.69 -2.96 2.29 l0 5.42 c0 0.18 -0.12 0.3 -0.3 0.3 l-1.56 0 c-0.18 0 -0.3 -0.12 -0.3 -0.3 l0 -9.2 c0 -0.18 0.12 -0.3 0.3 -0.3 l1.48 0 c0.18 0 0.28 0.12 0.3 0.3 l0.08 1.32 l0.22 0 c0.64 -0.94 1.83 -1.84 3.43 -1.84 z M372.365 9.98 c2.96 0 4.74 2.27 4.74 4.89 c0 0.74 -0.09 1.11 -0.65 1.11 l-6.99 0 c0.23 1.52 1.5 2.5 3.31 2.5 c1.05 0 1.78 -0.32 2.45 -0.83 c0.16 -0.12 0.28 -0.15 0.43 0 l0.66 0.66 c0.15 0.15 0.16 0.29 0 0.45 c-0.95 0.95 -2.19 1.5 -3.76 1.5 c-3.12 0 -5.19 -2.26 -5.19 -5.14 s2.07 -5.14 5 -5.14 z M372.375 11.83 c-1.53 0 -2.67 1 -2.89 2.59 l5.72 0 c-0.16 -1.57 -1.27 -2.59 -2.83 -2.59 z"></path></g></svg>                

